<?xml version="1.0" encoding="UTF-8"?>
<svg xmlns="http://www.w3.org/2000/svg" viewBox="0 0 920 470" font-family="Helvetica, Arial, sans-serif">
  <!-- BGP EVPN VXLAN multi-tenant (IPv4 transport) — matches playset/bgp-evpn-vxlan4-multi.
       Editable source: BgpEvpnVxlan4Multi.drawio (re-export from draw.io replaces this file). -->
  <rect width="920" height="470" fill="#ffffff"/>

  <!-- title -->
  <text x="460" y="28" text-anchor="middle" font-size="15" fill="#333333">BGP EVPN VXLAN — multi-tenant</text>
  <text x="460" y="46" text-anchor="middle" font-size="10" fill="#777777">iBGP AS 65001 · VXLAN UDP 4789 · vtep1 serves both tenants (br10 = VNI 10, br20 = VNI 20)</text>

  <!-- tenant flood domains (VLAN IDs scoped per bridge: two separate broadcast domains) -->
  <rect x="20" y="145" width="878" height="117" rx="8" fill="none" stroke="#0499D4" stroke-dasharray="6,4"/>
  <rect x="20" y="262" width="878" height="156" rx="8" fill="none" stroke="#4DA72E" stroke-dasharray="6,4"/>
  <text x="30" y="161" font-size="12" fill="#0499D4">VNI 10 flood domain · RT 65001:10</text>
  <text x="30" y="410" font-size="12" fill="#4DA72E">VNI 20 flood domain · RT 65001:20</text>

  <!-- access links -->
  <line x1="94" y1="229" x2="266" y2="229" stroke="#0499D4" stroke-width="1.5"/>
  <line x1="94" y1="306" x2="266" y2="306" stroke="#4DA72E" stroke-width="1.5"/>
  <line x1="758" y1="195" x2="822" y2="195" stroke="#0499D4" stroke-width="1.5"/>
  <line x1="758" y1="380" x2="822" y2="380" stroke="#4DA72E" stroke-width="1.5"/>

  <!-- VXLAN tunnels, one per tenant, each on its own underlay link -->
  <line x1="384" y1="229" x2="640" y2="195" stroke="#0499D4" stroke-width="3"/>
  <line x1="384" y1="306" x2="640" y2="380" stroke="#4DA72E" stroke-width="3"/>
  <text x="512" y="181" text-anchor="middle" font-size="9" fill="#0499D4">VXLAN · VNI 10</text>
  <text x="512" y="194" text-anchor="middle" font-size="8" fill="#0499D4">192.168.0.0/24</text>
  <text x="512" y="353" text-anchor="middle" font-size="9" fill="#4DA72E">VXLAN · VNI 20</text>
  <text x="512" y="366" text-anchor="middle" font-size="8" fill="#4DA72E">192.168.1.0/24</text>

  <!-- VTEP boxes (vtep1 unfilled so the tenant boundary shows through) -->
  <rect x="250" y="175" width="150" height="170" rx="6" fill="none" stroke="#0E9ED5"/>
  <rect x="640" y="155" width="118" height="64" rx="6" fill="#F7FBFE" stroke="#0E9ED5"/>
  <rect x="640" y="340" width="118" height="64" rx="6" fill="#F7FBFE" stroke="#0E9ED5"/>
  <text x="325" y="192" text-anchor="middle" font-size="11" fill="#333333">vtep1</text>
  <text x="699" y="170" text-anchor="middle" font-size="11" fill="#333333">vtep2</text>
  <text x="699" y="355" text-anchor="middle" font-size="11" fill="#333333">vtep3</text>

  <!-- bridges (per tenant, colour-coded) -->
  <g font-size="9" text-anchor="middle" fill="#333333">
    <rect x="266" y="205" width="118" height="48" rx="4" fill="#EAF6FC" stroke="#0499D4"/>
    <text x="325" y="232">br10 · VNI 10</text>
    <rect x="266" y="282" width="118" height="48" rx="4" fill="#EEF7E9" stroke="#4DA72E"/>
    <text x="325" y="309">br20 · VNI 20</text>
    <rect x="653" y="180" width="92" height="30" rx="4" fill="#EAF6FC" stroke="#0499D4"/>
    <text x="699" y="199">br10 · VNI 10</text>
    <rect x="653" y="365" width="92" height="30" rx="4" fill="#EEF7E9" stroke="#4DA72E"/>
    <text x="699" y="384">br20 · VNI 20</text>
  </g>

  <!-- hosts -->
  <g font-size="10" text-anchor="middle" fill="#ffffff">
    <rect x="40" y="212" width="54" height="34" rx="6" fill="#0499D4"/>
    <text x="67" y="233">h1</text>
    <rect x="40" y="289" width="54" height="34" rx="6" fill="#4DA72E"/>
    <text x="67" y="310">h4</text>
    <rect x="822" y="178" width="54" height="34" rx="6" fill="#0499D4"/>
    <text x="849" y="199">h2</text>
    <rect x="822" y="363" width="54" height="34" rx="6" fill="#4DA72E"/>
    <text x="849" y="384">h3</text>
  </g>

  <!-- addresses -->
  <g font-size="8" text-anchor="middle">
    <text x="67" y="258" fill="#333333">172.16.10.1</text>
    <text x="67" y="337" fill="#333333">172.16.10.4</text>
    <text x="849" y="226" fill="#333333">172.16.10.2</text>
    <text x="849" y="411" fill="#333333">172.16.10.3</text>
    <text x="432" y="210" fill="#8a6d00">192.168.0.1</text>
    <text x="432" y="337" fill="#8a6d00">192.168.1.1</text>
    <text x="699" y="232" fill="#8a6d00">192.168.0.2</text>
    <text x="699" y="331" fill="#8a6d00">192.168.1.2</text>
  </g>

  <!-- caption -->
  <text x="460" y="450" text-anchor="middle" font-size="9" fill="#777777">All four hosts share 172.16.10.0/24 — isolation is by VNI / route-target, not addressing; a ping succeeds only within its tenant.</text>
</svg>
