<?xml version="1.0" encoding="UTF-8"?>
<svg xmlns="http://www.w3.org/2000/svg" viewBox="0 0 860 360" font-family="Helvetica, Arial, sans-serif">
  <!-- BGP EVPN VXLAN (IPv4 transport) — matches playset/bgp-evpn-vxlan4.
       Editable source: BgpEvpnVxlan4.drawio (re-export from draw.io replaces this file). -->
  <rect width="860" height="360" fill="#ffffff"/>

  <!-- control plane: iBGP EVPN session between the two VTEPs -->
  <path d="M 285,138 C 340,58 520,58 575,138" fill="none" stroke="#A02C93" stroke-width="1.5" stroke-dasharray="5,4"/>
  <text x="430" y="46" text-anchor="middle" font-size="10" fill="#A02C93">iBGP AS 65001 · EVPN — Type-3 IMET (flood list) + Type-2 MAC (remote FDB)</text>

  <!-- overlay L2 segment domain -->
  <rect x="15" y="112" width="830" height="138" rx="8" fill="none" stroke="#999999" stroke-dasharray="6,4"/>
  <text x="26" y="132" font-size="12" fill="#333333">VNI 10 — one stretched L2 segment (172.16.10.0/24)</text>

  <!-- access links -->
  <line x1="82" y1="185" x2="214" y2="185" stroke="#0499D4" stroke-width="1.5"/>
  <line x1="646" y1="185" x2="778" y2="185" stroke="#0499D4" stroke-width="1.5"/>
  <text x="148" y="178" text-anchor="middle" font-size="8" fill="#777777">vtep1-h1</text>
  <text x="712" y="178" text-anchor="middle" font-size="8" fill="#777777">vtep2-h2</text>

  <!-- inner VTEP wiring (bridge <-> vxlan device) -->
  <line x1="278" y1="185" x2="294" y2="185" stroke="#777777" stroke-width="1.5"/>
  <line x1="566" y1="185" x2="582" y2="185" stroke="#777777" stroke-width="1.5"/>

  <!-- VXLAN tunnel over the IP underlay -->
  <line x1="358" y1="185" x2="502" y2="185" stroke="#E97131" stroke-width="3"/>
  <text x="430" y="173" text-anchor="middle" font-size="9" fill="#E97131">VXLAN tunnel</text>
  <text x="430" y="207" text-anchor="middle" font-size="8" fill="#E97131">VNI 10 · UDP 4789</text>

  <!-- VTEP boxes -->
  <g>
    <rect x="200" y="138" width="170" height="84" rx="6" fill="#F7FBFE" stroke="#0E9ED5"/>
    <rect x="490" y="138" width="170" height="84" rx="6" fill="#F7FBFE" stroke="#0E9ED5"/>
    <text x="285" y="154" text-anchor="middle" font-size="11" fill="#333333">vtep1</text>
    <text x="575" y="154" text-anchor="middle" font-size="11" fill="#333333">vtep2</text>
  </g>

  <!-- bridges and vxlan devices inside the VTEPs -->
  <g font-size="9" text-anchor="middle">
    <rect x="214" y="166" width="64" height="38" rx="4" fill="#E1E1E1" stroke="#999999"/>
    <text x="246" y="189" fill="#333333">br10</text>
    <rect x="294" y="166" width="64" height="38" rx="4" fill="#FFF2CC" stroke="#D6B656"/>
    <text x="326" y="189" fill="#333333">vxlan10</text>
    <rect x="582" y="166" width="64" height="38" rx="4" fill="#E1E1E1" stroke="#999999"/>
    <text x="614" y="189" fill="#333333">br10</text>
    <rect x="502" y="166" width="64" height="38" rx="4" fill="#FFF2CC" stroke="#D6B656"/>
    <text x="534" y="189" fill="#333333">vxlan10</text>
  </g>

  <!-- hosts -->
  <g font-size="10" text-anchor="middle" fill="#ffffff">
    <rect x="30" y="167" width="52" height="36" rx="6" fill="#0499D4"/>
    <text x="56" y="189">h1</text>
    <rect x="778" y="167" width="52" height="36" rx="6" fill="#0499D4"/>
    <text x="804" y="189">h2</text>
  </g>

  <!-- addresses -->
  <g font-size="9" text-anchor="middle" fill="#333333">
    <text x="56" y="236">172.16.10.1</text>
    <text x="804" y="236">172.16.10.2</text>
    <text x="326" y="236" fill="#8a6d00">192.168.0.1</text>
    <text x="534" y="236" fill="#8a6d00">192.168.0.2</text>
  </g>

  <!-- data plane: host L2 frame -> VXLAN over IP underlay -> host L2 frame -->
  <g font-size="10" text-anchor="middle">
    <rect x="25" y="292" width="333" height="24" fill="none" stroke="#999999"/>
    <text x="191" y="308" fill="#333333">Ethernet frame (host L2)</text>
    <rect x="358" y="292" width="144" height="24" rx="12" fill="#DAE8FC" stroke="#6C8EBF"/>
    <text x="430" y="308" fill="#1a3a6b">VXLAN over IP</text>
    <rect x="502" y="292" width="333" height="24" fill="none" stroke="#999999"/>
    <text x="668" y="308" fill="#333333">Ethernet frame (host L2)</text>
  </g>
  <text x="430" y="340" text-anchor="middle" font-size="9" fill="#777777">Host L2 frames ride VXLAN across the IP underlay (192.168.0.0/24); each VTEP encapsulates on egress and decapsulates on ingress.</text>
</svg>
