<?xml version="1.0" encoding="UTF-8"?>
<svg xmlns="http://www.w3.org/2000/svg" viewBox="0 0 830 400" font-family="Helvetica, Arial, sans-serif">
  <!-- Inter-AS Option AB (per-VPN VRFs + one VPNv4 session)
       — matches playset/interas-option-ab: three customers, two PEs in
       AS 65501, per-customer transit VRFs at both borders.
       Editable source: InterASOptionAB.drawio (re-export from draw.io replaces this file). -->
  <rect width="830" height="400" fill="#ffffff"/>

  <!-- AS boxes -->
  <rect x="75" y="30" width="300" height="290" rx="8" fill="none" stroke="#999999" stroke-dasharray="6,4"/>
  <rect x="480" y="30" width="280" height="290" rx="8" fill="none" stroke="#999999" stroke-dasharray="6,4"/>
  <text x="160" y="50" text-anchor="middle" font-size="12" fill="#333333">AS 65501</text>
  <text x="690" y="50" text-anchor="middle" font-size="12" fill="#333333">AS 65502</text>

  <!-- provider clouds -->
  <path d="M 170,185 C 140,190 120,165 135,140 C 115,115 135,85 165,95 C 175,70 215,65 235,85 C 260,70 295,85 295,110 C 320,120 315,155 290,165 C 285,185 250,195 230,182 C 215,195 185,195 170,185 Z"
        fill="none" stroke="#bbbbbb" stroke-width="0.7" transform="matrix(1.24,0,0,1.69,-32,-24)"/>
  <path d="M 170,185 C 140,190 120,165 135,140 C 115,115 135,85 165,95 C 175,70 215,65 235,85 C 260,70 295,85 295,110 C 320,120 315,155 290,165 C 285,185 250,195 230,182 C 215,195 185,195 170,185 Z"
        fill="none" stroke="#bbbbbb" stroke-width="0.8" transform="matrix(1.10,0,0,1.46,362,3)"/>

  <!-- per-customer transit VRFs on the ASBRs (the Option A half) -->
  <text x="322" y="58" text-anchor="middle" font-size="8" fill="#666666">transit VRFs</text>
  <text x="516" y="58" text-anchor="middle" font-size="8" fill="#666666">transit VRFs</text>
  <g font-size="8" text-anchor="middle" fill="#ffffff">
    <rect x="299" y="64" width="46" height="16" rx="4" fill="#0499D4"/>
    <text x="322" y="75">cust1</text>
    <rect x="299" y="84" width="46" height="16" rx="4" fill="#4DA72E"/>
    <text x="322" y="95">cust2</text>
    <rect x="299" y="104" width="46" height="16" rx="4" fill="#E97131"/>
    <text x="322" y="115">cust3</text>
    <rect x="493" y="64" width="46" height="16" rx="4" fill="#0499D4"/>
    <text x="516" y="75">cust1</text>
    <rect x="493" y="84" width="46" height="16" rx="4" fill="#4DA72E"/>
    <text x="516" y="95">cust2</text>
    <rect x="493" y="104" width="46" height="16" rx="4" fill="#E97131"/>
    <text x="516" y="115">cust3</text>
  </g>
  <line x1="330" y1="122" x2="340" y2="175" stroke="#999999" stroke-width="1" stroke-dasharray="2,2"/>
  <line x1="508" y1="122" x2="505" y2="175" stroke="#999999" stroke-width="1" stroke-dasharray="2,2"/>

  <!-- CE-PE links -->
  <line x1="55" y1="92.5" x2="170" y2="130" stroke="#0499D4" stroke-width="1.5"/>
  <line x1="55" y1="162.5" x2="170" y2="130" stroke="#4DA72E" stroke-width="1.5"/>
  <line x1="55" y1="267.5" x2="170" y2="250" stroke="#E97131" stroke-width="1.5"/>
  <line x1="665" y1="190" x2="770" y2="92.5" stroke="#0499D4" stroke-width="1.5"/>
  <line x1="665" y1="190" x2="770" y2="190" stroke="#4DA72E" stroke-width="1.5"/>
  <line x1="665" y1="190" x2="770" y2="267.5" stroke="#E97131" stroke-width="1.5"/>

  <!-- intra-AS core links -->
  <line x1="170" y1="130" x2="255" y2="190" stroke="#A02C93" stroke-width="1.5"/>
  <line x1="170" y1="250" x2="255" y2="190" stroke="#A02C93" stroke-width="1.5"/>
  <line x1="255" y1="190" x2="340" y2="190" stroke="#A02C93" stroke-width="1.5"/>
  <line x1="505" y1="190" x2="585" y2="190" stroke="#A02C93" stroke-width="1.5"/>
  <line x1="585" y1="190" x2="665" y2="190" stroke="#A02C93" stroke-width="1.5"/>

  <!-- inter-AS: ONE session, per-VPN VRF lookup at each end -->
  <line x1="355" y1="190" x2="490" y2="190" stroke="#E97131" stroke-width="2.5"/>
  <text x="422" y="180" text-anchor="middle" font-size="9" fill="#E97131">eBGP VPNv4 (one session)</text>

  <!-- routers -->
  <g stroke="#0E9ED5" stroke-width="1.5" fill="#ffffff">
    <circle cx="170" cy="130" r="15"/>
    <circle cx="170" cy="250" r="15"/>
    <circle cx="255" cy="190" r="15"/>
    <circle cx="340" cy="190" r="15"/>
    <circle cx="505" cy="190" r="15"/>
    <circle cx="585" cy="190" r="15"/>
    <circle cx="665" cy="190" r="15"/>
  </g>
  <g text-anchor="middle" font-size="8" fill="#333333">
    <text x="170" y="133">PE1</text>
    <text x="170" y="253">PE2</text>
    <text x="255" y="193">P1</text>
    <text x="340" y="193" font-size="7">ASBR1</text>
    <text x="505" y="193" font-size="7">ASBR2</text>
    <text x="585" y="193">P2</text>
    <text x="665" y="193">PE3</text>
  </g>

  <!-- customer edges -->
  <g font-size="9" text-anchor="middle" fill="#ffffff">
    <rect x="15" y="80" width="40" height="25" rx="5" fill="#0499D4"/>
    <text x="35" y="96">CE1</text>
    <rect x="15" y="150" width="40" height="25" rx="5" fill="#4DA72E"/>
    <text x="35" y="166">CE2</text>
    <rect x="15" y="255" width="40" height="25" rx="5" fill="#E97131"/>
    <text x="35" y="271">CE3</text>
    <rect x="770" y="80" width="40" height="25" rx="5" fill="#0499D4"/>
    <text x="790" y="96">CE4</text>
    <rect x="770" y="177.5" width="40" height="25" rx="5" fill="#4DA72E"/>
    <text x="790" y="193.5">CE5</text>
    <rect x="770" y="255" width="40" height="25" rx="5" fill="#E97131"/>
    <text x="790" y="271">CE6</text>
  </g>

  <!-- data plane bands: labeled across the border -->
  <g font-size="11" text-anchor="middle">
    <rect x="25" y="353" width="110" height="20" fill="none" stroke="#999999"/>
    <text x="80" y="367" fill="#333333">IP</text>
    <rect x="150" y="353" width="205" height="20" rx="10" fill="#99CCFF" stroke="#808080"/>
    <text x="252" y="367" fill="#000000">MPLS</text>
    <rect x="367" y="353" width="120" height="20" rx="10" fill="#FBE5D6" stroke="#E97131"/>
    <text x="427" y="367" fill="#000000">MPLS</text>
    <rect x="500" y="353" width="190" height="20" rx="10" fill="#A5E798" stroke="#808080"/>
    <text x="595" y="367" fill="#000000">MPLS</text>
    <rect x="702" y="353" width="110" height="20" fill="none" stroke="#999999"/>
    <text x="757" y="367" fill="#333333">IP</text>
  </g>
</svg>
