<?xml version="1.0" encoding="UTF-8"?>
<svg xmlns="http://www.w3.org/2000/svg" viewBox="0 0 830 330" font-family="Helvetica, Arial, sans-serif">
  <!-- Inter-AS Option AB (per-VPN VRFs + one VPNv4 session)
       — matches playset/interas-option-ab.
       Editable source: InterASOptionAB.drawio (re-export from draw.io replaces this file). -->
  <rect width="830" height="330" fill="#ffffff"/>

  <!-- AS boxes -->
  <rect x="90" y="40" width="270" height="230" rx="8" fill="none" stroke="#999999" stroke-dasharray="6,4"/>
  <rect x="480" y="40" width="270" height="230" rx="8" fill="none" stroke="#999999" stroke-dasharray="6,4"/>
  <text x="180" y="58" text-anchor="middle" font-size="12" fill="#333333">AS 65501</text>
  <text x="660" y="58" text-anchor="middle" font-size="12" fill="#333333">AS 65502</text>

  <!-- per-customer transit VRFs on the ASBRs (the Option A half) -->
  <g font-size="8" text-anchor="middle" fill="#ffffff">
    <rect x="291" y="80" width="46" height="18" rx="4" fill="#0499D4"/>
    <text x="314" y="92">cust1</text>
    <rect x="291" y="103" width="46" height="18" rx="4" fill="#4DA72E"/>
    <text x="314" y="115">cust2</text>
    <rect x="493" y="80" width="46" height="18" rx="4" fill="#0499D4"/>
    <text x="516" y="92">cust1</text>
    <rect x="493" y="103" width="46" height="18" rx="4" fill="#4DA72E"/>
    <text x="516" y="115">cust2</text>
  </g>
  <text x="314" y="72" text-anchor="middle" font-size="8" fill="#666666">transit VRFs</text>
  <text x="516" y="72" text-anchor="middle" font-size="8" fill="#666666">transit VRFs</text>
  <line x1="322" y1="121" x2="325" y2="165" stroke="#999999" stroke-width="1" stroke-dasharray="2,2"/>
  <line x1="508" y1="121" x2="505" y2="165" stroke="#999999" stroke-width="1" stroke-dasharray="2,2"/>

  <!-- CE-PE links -->
  <line x1="60" y1="142.5" x2="165" y2="180" stroke="#0499D4" stroke-width="1.5"/>
  <line x1="60" y1="212.5" x2="165" y2="180" stroke="#4DA72E" stroke-width="1.5"/>
  <line x1="665" y1="180" x2="770" y2="142.5" stroke="#0499D4" stroke-width="1.5"/>
  <line x1="665" y1="180" x2="770" y2="212.5" stroke="#4DA72E" stroke-width="1.5"/>

  <!-- intra-AS core links -->
  <line x1="165" y1="180" x2="245" y2="180" stroke="#A02C93" stroke-width="1.5"/>
  <line x1="245" y1="180" x2="325" y2="180" stroke="#A02C93" stroke-width="1.5"/>
  <line x1="505" y1="180" x2="585" y2="180" stroke="#A02C93" stroke-width="1.5"/>
  <line x1="585" y1="180" x2="665" y2="180" stroke="#A02C93" stroke-width="1.5"/>

  <!-- inter-AS link: ONE session, per-VPN VRF lookup at each end -->
  <line x1="340" y1="180" x2="490" y2="180" stroke="#E97131" stroke-width="2.5"/>
  <text x="415" y="170" text-anchor="middle" font-size="9" fill="#E97131">eBGP VPNv4 (one session)</text>

  <!-- routers -->
  <g stroke="#0E9ED5" stroke-width="1.5" fill="#ffffff">
    <circle cx="165" cy="180" r="15"/>
    <circle cx="245" cy="180" r="15"/>
    <circle cx="325" cy="180" r="15"/>
    <circle cx="505" cy="180" r="15"/>
    <circle cx="585" cy="180" r="15"/>
    <circle cx="665" cy="180" r="15"/>
  </g>
  <g text-anchor="middle" font-size="8" fill="#333333">
    <text x="165" y="183">pe1</text>
    <text x="245" y="183">p1</text>
    <text x="325" y="183">asbr1</text>
    <text x="505" y="183">asbr2</text>
    <text x="585" y="183">p2</text>
    <text x="665" y="183">pe2</text>
  </g>

  <!-- customer edges -->
  <g font-size="9" text-anchor="middle" fill="#ffffff">
    <rect x="20" y="130" width="40" height="25" rx="5" fill="#0499D4"/>
    <text x="40" y="146">ce1</text>
    <rect x="20" y="200" width="40" height="25" rx="5" fill="#4DA72E"/>
    <text x="40" y="216">ce2</text>
    <rect x="770" y="130" width="40" height="25" rx="5" fill="#0499D4"/>
    <text x="790" y="146">ce3</text>
    <rect x="770" y="200" width="40" height="25" rx="5" fill="#4DA72E"/>
    <text x="790" y="216">ce4</text>
  </g>

  <!-- data plane bands -->
  <g font-size="11" text-anchor="middle">
    <rect x="25" y="293" width="110" height="20" fill="none" stroke="#999999"/>
    <text x="80" y="307" fill="#333333">IP</text>
    <rect x="150" y="293" width="190" height="20" rx="10" fill="#99CCFF" stroke="#808080"/>
    <text x="245" y="307" fill="#000000">MPLS</text>
    <rect x="352" y="293" width="135" height="20" rx="10" fill="#FBE5D6" stroke="#808080"/>
    <text x="419" y="307" fill="#000000">MPLS</text>
    <rect x="500" y="293" width="190" height="20" rx="10" fill="#A5E798" stroke="#808080"/>
    <text x="595" y="307" fill="#000000">MPLS</text>
    <rect x="702" y="293" width="110" height="20" fill="none" stroke="#999999"/>
    <text x="757" y="307" fill="#333333">IP</text>
  </g>
</svg>
